<?xml version="1.0" encoding="UTF-8"?>
<svg id="Livello_1" data-name="Livello 1" xmlns="http://www.w3.org/2000/svg" viewBox="880 420 2230 1250">
  <defs>
    <style>
      .cls-1 {
        fill: #f1e7cb;
      }
    </style>
  </defs>
  <g>
    <path class="cls-1" d="M1176.04,812.59v49.06h-166.27v-289.52h57.9v232.82c0,2.01.7,3.79,2.11,5.33s3.25,2.31,5.53,2.31h100.73Z"/>
    <path class="cls-1" d="M1332.47,629.23v54.08c0,2.28.7,4.12,2.11,5.53,1.41,1.41,3.25,2.11,5.53,2.11h111.59v49.46h-111.59c-2.28,0-4.12.7-5.53,2.11-1.41,1.41-2.11,3.25-2.11,5.53v56.5c0,2.28.7,4.12,2.11,5.53,1.41,1.41,3.25,2.11,5.53,2.11h111.59v49.46h-177.13v-289.52h177.13v49.46h-111.59c-2.28,0-4.12.7-5.53,2.11-1.41,1.41-2.11,3.25-2.11,5.53Z"/>
  </g>
  <g>
    <path class="cls-1" d="M1171.42,1122.21v-8.04c0-8.58-1.28-15.88-3.82-21.92-2.55-6.03-6.1-10.96-10.66-14.78-4.56-3.82-10.02-6.63-16.39-8.44s-13.44-2.71-21.21-2.71c-18.37,0-32.24,4.42-41.62,13.27s-14.07,22.39-14.07,40.61v87.66c0,18.23,4.69,31.77,14.07,40.61,9.38,8.85,23.25,13.27,41.62,13.27,16.49,0,29.29-3.79,38.4-11.36,9.11-7.57,13.67-19.4,13.67-35.49v-8.65h57.9v8.24c0,14.88-2.31,28.28-6.94,40.21-4.62,11.93-11.06,22.08-19.3,30.46-8.24,8.38-18.03,14.81-29.35,19.3-11.33,4.49-23.69,6.74-37.1,6.74h-34.18l.02.03c-14.34,0-27.44-2.41-39.31-7.24-11.86-4.83-22.05-11.76-30.56-20.81-8.51-9.05-15.11-19.94-19.8-32.67-4.69-12.73-7.04-27.07-7.04-43.03v-86.86c0-15.81,2.34-30.12,7.04-42.93,4.69-12.8,11.29-23.72,19.8-32.77s18.7-15.98,30.56-20.81,24.96-7.24,39.31-7.24h34.18c12.87,0,24.93,2.21,36.19,6.63,11.26,4.42,21.08,10.83,29.45,19.2,8.38,8.38,14.98,18.6,19.8,30.66s7.24,25.8,7.24,41.22v7.64h-57.9Z"/>
    <path class="cls-1" d="M1564.49,1077.68c-4.7-12.8-11.36-23.72-20.01-32.77-8.64-9.05-19.03-15.98-31.16-20.81s-25.63-7.24-40.51-7.24h-30.16c-14.88,0-28.38,2.41-40.51,7.24s-22.51,11.76-31.16,20.81c-8.65,9.05-15.32,19.97-20.01,32.77-4.7,12.81-7.04,27.12-7.04,42.93v86.86c0,15.96,2.35,30.3,7.04,43.03,4.7,12.73,11.36,23.62,20.01,32.67,8.64,9.05,19.03,15.98,31.16,20.81,12.13,4.83,25.63,7.24,40.51,7.24h30.16c14.88,0,28.38-2.41,40.51-7.24,12.13-4.83,22.51-11.76,31.16-20.81,8.65-9.05,15.32-19.93,20.01-32.67,4.69-12.74,7.04-27.08,7.04-43.03v-86.86c0-15.82-2.35-30.13-7.04-42.93ZM1513.62,1207.88c0,35.92-18.63,53.88-55.89,53.88-18.37,0-32.27-4.43-41.72-13.27-9.45-8.84-14.17-22.38-14.17-40.61v-87.66c0-18.22,4.72-31.76,14.17-40.61,9.45-8.85,23.35-13.27,41.72-13.27,37.26,0,55.89,17.96,55.89,53.88v87.66Z"/>
    <path class="cls-1" d="M1978.88,1019.28v289.52h-57.9v-158.03c0-1.61.03-3.45.1-5.53.07-2.08.1-4.12.1-6.13s.03-3.89.1-5.63c.07-1.74.1-3.15.1-4.22,0-2.81-.87-4.22-2.61-4.22-.67,0-1.24.3-1.71.9-.47.6-.97,1.64-1.51,3.12-.54,1.48-1.21,3.49-2.01,6.03-.8,2.55-1.88,5.76-3.22,9.65l-54.49,164.06h-44.63l-54.49-164.06c-2.15-6.3-3.72-11.16-4.72-14.58-1-3.42-2.25-5.13-3.72-5.13-1.61,0-2.41,1.88-2.41,5.63,0,2.28.03,5.36.1,9.25.07,3.89.1,7.57.1,11.06v157.83h-57.9v-289.52h71.15l67.56,199.85c.4,1.34.87,2.78,1.41,4.32.53,1.54,1.07,3.02,1.61,4.42.53,1.41,1.11,2.58,1.71,3.52.6.94,1.24,1.41,1.91,1.41s1.31-.47,1.91-1.41c.6-.94,1.17-2.11,1.71-3.52.53-1.41,1.07-2.88,1.61-4.42.53-1.54,1.01-2.98,1.41-4.32l67.56-199.85h71.17Z"/>
    <path class="cls-1" d="M2308.41,1061.71c-3.89-9.25-9.58-17.02-17.09-23.32s-16.73-11.06-27.65-14.28c-10.93-3.22-23.36-4.83-37.3-4.83h-126.87.01v289.53h57.9v-88.26c0-2.28.7-4.12,2.11-5.53,1.41-1.41,3.25-2.11,5.53-2.11h61.32c13.94,0,26.37-1.61,37.3-4.83,10.93-3.21,20.14-7.94,27.65-14.17s13.2-13.97,17.09-23.22,5.83-19.91,5.83-31.97v-45.04c0-12.07-1.94-22.72-5.83-31.97ZM2256.32,1131.27c0,12.06-2.99,20.44-8.95,25.13-5.97,4.7-14.85,7.04-26.64,7.04h-55.29c-2.28,0-4.12-.7-5.53-2.11s-2.11-3.25-2.11-5.53v-79.02c0-2.28.7-4.12,2.11-5.53,1.41-1.41,3.25-2.11,5.53-2.11h55.29c11.79,0,20.67,2.35,26.64,7.04,5.97,4.69,8.95,12.94,8.95,24.73v30.36Z"/>
    <path class="cls-1" d="M2603.34,1019.29v53.48h-65.95c-2.28,0-4.12.7-5.53,2.11-1.41,1.41-2.11,3.25-2.11,5.53v228.4h-57.9v-228.4c0-2.28-.7-4.12-2.11-5.53-1.41-1.41-3.25-2.11-5.53-2.11h-65.95v-53.48h205.08Z"/>
    <path class="cls-1" d="M2903.93,1077.68c-4.7-12.8-11.36-23.72-20.01-32.77-8.64-9.05-19.03-15.98-31.16-20.81s-25.63-7.24-40.51-7.24h-30.16c-14.88,0-28.38,2.41-40.51,7.24-12.13,4.83-22.51,11.76-31.16,20.81s-15.32,19.97-20.01,32.77c-4.7,12.81-7.04,27.12-7.04,42.93v86.86c0,15.96,2.35,30.3,7.04,43.03,4.7,12.73,11.36,23.62,20.01,32.67,8.64,9.05,19.03,15.98,31.16,20.81,12.13,4.83,25.63,7.24,40.51,7.24h30.16c14.88,0,28.38-2.41,40.51-7.24,12.13-4.83,22.51-11.76,31.16-20.81,8.65-9.05,15.32-19.93,20.01-32.67,4.69-12.74,7.04-27.08,7.04-43.03v-86.86c0-15.82-2.35-30.13-7.04-42.93ZM2853.06,1207.88c0,35.92-18.63,53.88-55.89,53.88-18.37,0-32.27-4.42-41.72-13.27-9.45-8.84-14.17-22.38-14.17-40.61v-87.66c0-18.22,4.72-31.76,14.17-40.61,9.45-8.85,23.35-13.27,41.72-13.27,37.26,0,55.89,17.96,55.89,53.88v87.66Z"/>
    <path class="cls-1" d="M3383.84,1169.78c.81-.6,2.01-1.24,3.62-1.91,4.83-1.88,9.28-4.29,13.37-7.24s7.64-6.6,10.66-10.96c3.02-4.35,5.4-9.45,7.14-15.28,1.74-5.83,2.61-12.57,2.61-20.21v-19.3c0-11.52-1.84-21.94-5.53-31.26-3.69-9.32-9.15-17.26-16.39-23.83s-16.22-11.63-26.94-15.18c-10.72-3.55-23.05-5.33-36.99-5.33h-129.28.01v289.53h57.9v-102.54c0-2.28.7-4.12,2.11-5.53s3.25-2.11,5.53-2.11h61.12c4.96,0,9.35.9,13.17,2.71,3.82,1.81,7,4.32,9.55,7.54,2.54,3.22,4.49,7.07,5.83,11.56s2.01,9.42,2.01,14.78v73.59h57.9v-77.61c0-13.4-2.95-24.73-8.85-33.98-5.9-9.25-14.34-16.22-25.33-20.91-1.48-.67-2.58-1.24-3.32-1.71s-1.11-1.17-1.11-2.11c0-1.2.4-2.11,1.21-2.71ZM3363.34,1118.2c0,10.05-2.65,17.66-7.94,22.82-5.3,5.16-12.7,7.74-22.22,7.74h-61.52c-2.28,0-4.12-.7-5.53-2.11s-2.11-3.25-2.11-5.53v-64.74c0-2.28.7-4.12,2.11-5.53,1.41-1.41,3.25-2.11,5.53-2.11h57.5c10.85,0,19.26,2.25,25.23,6.74,5.97,4.49,8.95,12.16,8.95,23.02v19.7Z"/>
  </g>
  <path class="cls-1" d="M1582.68,909.35v-466.35h-683.03v991.82h1473.12v-59.23H958.88v-407h2068.47v342.3h59.24v-401.54h-1503.91ZM1523.45,909.23h-564.57v-407h564.57v407Z"/>
  <rect class="cls-1" x="1582.68" y="909.23" width="741.83" height=".12"/>
  <path class="cls-1" d="M2178.91,676.38v.1h-519.05v193.72h533.15v-135.11h179.37v-58.71h-193.47ZM2134.3,811.49h-415.73v-76.3h415.73v76.3Z"/>
  <rect class="cls-1" x="1697.63" y="441.39" width="51.93" height="203.65"/>
  <rect class="cls-1" x="1902.09" y="441.39" width="52.09" height="203.65"/>
  <rect class="cls-1" x="2103.14" y="441.39" width="52.09" height="203.65"/>
  <g>
    <path class="cls-1" d="M1000.69,1532.61c-2.24-6.14-5.42-11.33-9.55-15.55-4.13-4.22-9.09-7.43-14.88-9.64-5.79-2.21-12.23-3.3-19.33-3.3h-57.28v138.19h57.28c7.1,0,13.55-1.11,19.33-3.32,5.8-2.21,10.75-5.42,14.88-9.64,4.13-4.23,7.31-9.41,9.55-15.55s3.36-13.15,3.36-21.02v-39.15c0-7.87-1.12-14.88-3.36-21.02ZM976.42,1592.98c0,8.7-2.21,15.16-6.62,19.38-4.41,4.22-10.81,6.34-19.19,6.34h0s-19.67-.01-19.67-.01c-1.1,0-1.97-.34-2.64-1.01-.67-.67-1.01-1.55-1.01-2.63v-83.67c0-1.09.34-1.97,1.01-2.64.68-.67,1.56-1.01,2.64-1.01h19.67c17.21,0,25.81,8.57,25.81,25.72v39.54Z"/>
    <path class="cls-1" d="M1088.69,1531.37v25.81c0,1.09.34,1.96,1.01,2.63.67.67,1.55,1.01,2.64,1.01h53.25v23.6h-53.25c-1.09,0-1.96.34-2.64,1.01-.67.67-1.01,1.56-1.01,2.63v26.97c0,1.09.34,1.96,1.01,2.63.67.67,1.55,1.01,2.64,1.01h53.25v23.6h-84.53v-138.16h84.53v23.6h-53.25c-1.09,0-1.96.34-2.64,1.01-.67.67-1.01,1.56-1.01,2.64Z"/>
    <path class="cls-1" d="M1390.29,1582.93c-2.82-4.7-7.42-8.36-13.82-10.98-1.41-.58-2.12-1.22-2.12-1.92,0-.39.2-.73.62-1.06.42-.33.98-.67,1.68-1.06,1.98-1.03,3.94-2.27,5.86-3.74,1.92-1.46,3.63-3.21,5.14-5.23,1.5-2.01,2.7-4.31,3.6-6.9s1.34-5.48,1.34-8.68v-3.16c0-5.5-.87-10.47-2.63-14.92-1.76-4.44-4.35-8.24-7.77-11.37-3.43-3.13-7.68-5.54-12.76-7.24-5.09-1.7-10.96-2.54-17.61-2.54h-61.51v138.16h62.47c6.78,0,12.76-.99,17.95-2.97,5.18-1.98,9.53-4.68,13.05-8.1,3.52-3.42,6.19-7.43,8.01-12.04,1.82-4.61,2.74-9.57,2.74-14.88v-2.88c0-7.62-1.4-13.78-4.22-18.48ZM1317.92,1532.63c0-1.09.34-1.97,1.01-2.64.68-.67,1.56-1.01,2.64-1.01h27.25c5.18,0,9.19,1.25,12.04,3.74s4.27,6.4,4.27,11.7c0,4.74-1.27,8.32-3.79,10.75-2.53,2.44-6.06,3.65-10.61,3.65h.01s-29.17-.01-29.17-.01c-1.1,0-1.97-.34-2.64-1.01-.67-.67-1.01-1.55-1.01-2.63v-22.54ZM1363.12,1613.09c-2.62,2.78-6.75,4.17-12.37,4.17h-29.17c-1.1,0-1.97-.34-2.64-1.01-.67-.67-1.01-1.55-1.01-2.63v-27.45c0-1.08.34-1.96,1.01-2.63.68-.67,1.56-1.01,2.64-1.01h30.89c4.61,0,8.19,1.61,10.75,4.84,2.55,3.22,3.83,7.46,3.83,12.71,0,5.89-1.31,10.22-3.94,13.01Z"/>
    <path class="cls-1" d="M1475.29,1531.37v25.81c0,1.09.34,1.96,1.01,2.63.67.67,1.55,1.01,2.64,1.01h53.25v23.6h-53.25c-1.09,0-1.96.34-2.64,1.01-.67.67-1.01,1.56-1.01,2.63v26.97c0,1.09.34,1.96,1.01,2.63.67.67,1.55,1.01,2.64,1.01h53.25v23.6h-84.53v-138.16h84.53v23.6h-53.25c-1.09,0-1.96.34-2.64,1.01-.67.67-1.01,1.56-1.01,2.64Z"/>
    <path class="cls-1" d="M1855.09,1504.13v92.12c0,7.29-1.01,13.85-3.02,19.67-2.01,5.82-4.89,10.78-8.63,14.88s-8.29,7.23-13.63,9.41-11.34,3.26-17.99,3.26h-18.24c-6.65-.01-12.65-1.1-17.99-3.27-5.34-2.18-9.9-5.31-13.68-9.41-3.77-4.1-6.67-9.05-8.68-14.88-2.01-5.82-3.02-12.38-3.02-19.67v-92.12h27.64v92.12c0,7.93,2.03,13.85,6.09,17.76,4.06,3.9,10.28,5.86,18.66,5.86s14.3-1.98,18.52-5.95c4.22-3.97,6.34-9.85,6.34-17.65v-92.12h27.64Z"/>
    <path class="cls-1" d="M1620.09,1504.12h-.01s-41.45,138.17-41.45,138.17h29.37l7.29-27.06c.25-.82.68-1.5,1.29-2.01.61-.51,1.39-.76,2.35-.76h43.56c1.03,0,1.82.25,2.4.76.58.52,1,1.22,1.25,2.12l7.29,26.97h29.37l-41.27-138.18h-41.45ZM1654.82,1588.86h-28.22c-.82,0-1.6-.15-2.3-.48-.7-.32-1.06-.93-1.06-1.82,0-.51.05-.98.14-1.39.09-.42.2-.81.34-1.2l10.56-39.34c1.4-5.19,2.6-9.32,3.6-12.43.99-3.1,1.93-4.66,2.83-4.66.96,0,1.92,1.59,2.88,4.75.97,3.16,2.12,7.24,3.46,12.23l10.46,38.67c.19.71.35,1.3.48,1.78s.19.95.19,1.39c0,1.66-1.12,2.49-3.36,2.49Z"/>
    <path class="cls-1" d="M1992.41,1618.88v23.41h-79.36v-138.17h27.63v111.12c0,.96.34,1.81,1.01,2.54.67.73,1.55,1.1,2.64,1.1h48.08Z"/>
    <rect class="cls-1" x="2040.77" y="1504.12" width="27.64" height="138.18"/>
    <path class="cls-1" d="M2154.95,1531.37v25.81c0,1.09.34,1.96,1.01,2.63.67.67,1.55,1.01,2.63,1.01h53.25v23.6h-53.25c-1.09,0-1.96.34-2.63,1.01-.67.67-1.01,1.56-1.01,2.63v26.97c0,1.09.34,1.96,1.01,2.63.67.67,1.55,1.01,2.63,1.01h53.25v23.6h-84.53v-138.16h84.53v23.6h-53.25c-1.09,0-1.96.34-2.63,1.01-.67.67-1.01,1.56-1.01,2.64Z"/>
    <path class="cls-1" d="M2372.77,1504.13v92.12c0,7.29-1.01,13.85-3.02,19.67-2.01,5.82-4.89,10.78-8.63,14.88-3.74,4.1-8.29,7.23-13.63,9.41s-11.34,3.26-17.99,3.26h-18.24c-6.65-.01-12.65-1.1-17.99-3.27-5.34-2.18-9.9-5.31-13.68-9.41-3.77-4.1-6.67-9.05-8.68-14.88-2.01-5.82-3.02-12.38-3.02-19.67v-92.12h27.64v92.12c0,7.93,2.03,13.85,6.09,17.76,4.06,3.9,10.28,5.86,18.66,5.86s14.3-1.98,18.52-5.95c4.22-3.97,6.34-9.85,6.34-17.65v-92.12h27.64Z"/>
  </g>
</svg>