<?xml version="1.0" encoding="UTF-8"?>
<svg id="Livello_1" data-name="Livello 1" xmlns="http://www.w3.org/2000/svg" viewBox="820 530 2575 1050">
  <defs>
    <style>
      .cls-1 {
        fill: #FCFAD7;
      }
    </style>
  </defs>
  <g>
    <path class="cls-1" d="M957.44,688.35h57.9v232.82c0,2.01.7,3.79,2.11,5.33,1.41,1.54,3.25,2.31,5.53,2.31h100.73v49.06h-166.27v-289.52Z"/>
    <path class="cls-1" d="M1222.24,688.35h177.13v49.46h-111.59c-2.28,0-4.12.7-5.53,2.11s-2.11,3.25-2.11,5.53v54.08c0,2.28.7,4.12,2.11,5.53s3.25,2.11,5.53,2.11h111.59v49.46h-111.59c-2.28,0-4.12.7-5.53,2.11s-2.11,3.25-2.11,5.53v56.5c0,2.28.7,4.12,2.11,5.53s3.25,2.11,5.53,2.11h111.59v49.46h-177.13v-289.52Z"/>
  </g>
  <g>
    <path class="cls-1" d="M1050.13,1427.44c-14.34,0-27.44-2.41-39.31-7.24-11.86-4.83-22.05-11.76-30.56-20.81-8.51-9.05-15.11-19.94-19.8-32.67-4.69-12.73-7.04-27.07-7.04-43.03v-86.86c0-15.81,2.34-30.12,7.04-42.93,4.69-12.8,11.29-23.72,19.8-32.77,8.51-9.05,18.7-15.98,30.56-20.81s24.96-7.24,39.31-7.24h34.18c12.87,0,24.93,2.21,36.19,6.63,11.26,4.42,21.08,10.83,29.45,19.2,8.38,8.38,14.98,18.6,19.8,30.66,4.83,12.06,7.24,25.8,7.24,41.22v7.64h-57.9v-8.04c0-8.58-1.28-15.88-3.82-21.92-2.55-6.03-6.1-10.96-10.66-14.78-4.56-3.82-10.02-6.63-16.39-8.44-6.37-1.81-13.44-2.71-21.21-2.71-18.37,0-32.24,4.42-41.62,13.27-9.38,8.85-14.07,22.39-14.07,40.61v87.66c0,18.23,4.69,31.77,14.07,40.61,9.38,8.85,23.25,13.27,41.62,13.27,16.49,0,29.29-3.79,38.4-11.36,9.11-7.57,13.67-19.4,13.67-35.49v-8.65h57.9v8.24c0,14.88-2.31,28.28-6.94,40.21-4.62,11.93-11.06,22.08-19.3,30.46-8.24,8.38-18.03,14.81-29.35,19.3-11.33,4.49-23.69,6.74-37.1,6.74h-34.18Z"/>
    <path class="cls-1" d="M1390.32,1427.44c-14.88,0-28.38-2.41-40.51-7.24-12.13-4.83-22.52-11.76-31.16-20.81s-15.31-19.94-20.01-32.67c-4.69-12.73-7.04-27.07-7.04-43.03v-86.86c0-15.81,2.34-30.12,7.04-42.93,4.69-12.8,11.36-23.72,20.01-32.77s19.03-15.98,31.16-20.81c12.13-4.83,25.63-7.24,40.51-7.24h30.16c14.88,0,28.38,2.41,40.51,7.24,12.13,4.83,22.52,11.76,31.16,20.81s15.31,19.97,20.01,32.77c4.69,12.8,7.04,27.11,7.04,42.93v86.86c0,15.95-2.35,30.29-7.04,43.03-4.69,12.74-11.36,23.62-20.01,32.67s-19.03,15.98-31.16,20.81c-12.13,4.83-25.63,7.24-40.51,7.24h-30.16ZM1405.4,1377.98c37.26,0,55.89-17.96,55.89-53.88v-87.66c0-35.92-18.63-53.88-55.89-53.88-18.37,0-32.27,4.42-41.72,13.27s-14.17,22.39-14.17,40.61v87.66c0,18.23,4.72,31.77,14.17,40.61s23.35,13.27,41.72,13.27Z"/>
    <path class="cls-1" d="M1635.81,1135.51h71.17l67.56,199.85c.4,1.34.87,2.78,1.41,4.32.53,1.54,1.07,3.02,1.61,4.42.53,1.41,1.11,2.58,1.71,3.52.6.94,1.24,1.41,1.91,1.41s1.31-.47,1.91-1.41c.6-.94,1.17-2.11,1.71-3.52.53-1.41,1.07-2.88,1.61-4.42.53-1.54,1.01-2.98,1.41-4.32l67.56-199.85h71.17v289.52h-57.9v-158.03c0-1.61.03-3.45.1-5.53.07-2.08.1-4.12.1-6.13s.03-3.89.1-5.63c.07-1.74.1-3.15.1-4.22,0-2.81-.87-4.22-2.61-4.22-.67,0-1.24.3-1.71.9-.47.6-.97,1.64-1.51,3.12-.54,1.48-1.21,3.49-2.01,6.03-.8,2.55-1.88,5.76-3.22,9.65l-54.49,164.06h-44.63l-54.49-164.06c-2.15-6.3-3.72-11.16-4.72-14.58s-2.25-5.13-3.72-5.13c-1.61,0-2.41,1.88-2.41,5.63,0,2.28.03,5.36.1,9.25.07,3.89.1,7.57.1,11.06v157.83h-57.9v-289.52Z"/>
    <path class="cls-1" d="M2047.17,1135.51h126.87c13.94,0,26.37,1.61,37.3,4.83,10.92,3.22,20.14,7.98,27.65,14.28,7.51,6.3,13.2,14.07,17.09,23.32,3.89,9.25,5.83,19.9,5.83,31.97v45.04c0,12.06-1.94,22.72-5.83,31.97-3.89,9.25-9.58,16.99-17.09,23.22-7.51,6.23-16.72,10.96-27.65,14.17-10.93,3.22-23.36,4.83-37.3,4.83h-61.32c-2.28,0-4.12.7-5.53,2.11s-2.11,3.25-2.11,5.53v88.26h-57.9v-289.52ZM2168.4,1279.67c11.79,0,20.67-2.34,26.64-7.04,5.96-4.69,8.95-13.07,8.95-25.13v-30.36c0-11.79-2.98-20.04-8.95-24.73-5.97-4.69-14.85-7.04-26.64-7.04h-55.29c-2.28,0-4.12.7-5.53,2.11s-2.11,3.25-2.11,5.53v79.02c0,2.28.7,4.12,2.11,5.53s3.25,2.11,5.53,2.11h55.29Z"/>
    <path class="cls-1" d="M2419.52,1196.63c0-2.28-.7-4.12-2.11-5.53s-3.25-2.11-5.53-2.11h-65.95v-53.48h205.08v53.48h-65.95c-2.28,0-4.12.7-5.53,2.11s-2.11,3.25-2.11,5.53v228.4h-57.9v-228.4Z"/>
    <path class="cls-1" d="M2729.76,1427.44c-14.88,0-28.38-2.41-40.51-7.24-12.13-4.83-22.52-11.76-31.16-20.81s-15.31-19.94-20.01-32.67c-4.69-12.73-7.04-27.07-7.04-43.03v-86.86c0-15.81,2.34-30.12,7.04-42.93,4.69-12.8,11.36-23.72,20.01-32.77s19.03-15.98,31.16-20.81c12.13-4.83,25.63-7.24,40.51-7.24h30.16c14.88,0,28.38,2.41,40.51,7.24,12.13,4.83,22.52,11.76,31.16,20.81s15.31,19.97,20.01,32.77c4.69,12.8,7.04,27.11,7.04,42.93v86.86c0,15.95-2.35,30.29-7.04,43.03-4.69,12.74-11.36,23.62-20.01,32.67s-19.03,15.98-31.16,20.81c-12.13,4.83-25.63,7.24-40.51,7.24h-30.16ZM2744.84,1377.98c37.26,0,55.89-17.96,55.89-53.88v-87.66c0-35.92-18.63-53.88-55.89-53.88-18.37,0-32.27,4.42-41.72,13.27-9.45,8.85-14.17,22.39-14.17,40.61v87.66c0,18.23,4.72,31.77,14.17,40.61,9.45,8.85,23.35,13.27,41.72,13.27Z"/>
    <path class="cls-1" d="M2975.25,1135.51h57.9v289.52h-57.9v-289.52Z"/>
    <path class="cls-1" d="M3153.78,1135.51h129.28c13.94,0,26.27,1.78,36.99,5.33,10.72,3.55,19.7,8.61,26.94,15.18,7.24,6.57,12.7,14.51,16.39,23.83,3.69,9.32,5.53,19.74,5.53,31.26v19.3c0,7.64-.87,14.38-2.61,20.21-1.74,5.83-4.12,10.93-7.14,15.28-3.02,4.36-6.57,8.01-10.66,10.96-4.09,2.95-8.54,5.36-13.37,7.24-1.61.67-2.81,1.31-3.62,1.91s-1.21,1.51-1.21,2.71c0,.94.37,1.64,1.11,2.11.74.47,1.84,1.04,3.32,1.71,10.99,4.69,19.43,11.66,25.33,20.91,5.9,9.25,8.85,20.58,8.85,33.98v77.61h-57.9v-73.59c0-5.36-.67-10.29-2.01-14.78-1.34-4.49-3.29-8.34-5.83-11.56-2.55-3.22-5.73-5.73-9.55-7.54s-8.21-2.71-13.17-2.71h-61.12c-2.28,0-4.12.7-5.53,2.11s-2.11,3.25-2.11,5.53v102.54h-57.9v-289.52ZM3280.85,1264.99c9.52,0,16.92-2.58,22.22-7.74,5.29-5.16,7.94-12.77,7.94-22.82v-19.7c0-10.86-2.98-18.53-8.95-23.02-5.97-4.49-14.38-6.74-25.23-6.74h-57.5c-2.28,0-4.12.7-5.53,2.11s-2.11,3.25-2.11,5.53v64.74c0,2.28.7,4.12,2.11,5.53s3.25,2.11,5.53,2.11h61.52Z"/>
  </g>
  <polygon class="cls-1" points="2320.44 1551.05 847.32 1551.05 847.32 1025.58 3034.26 1025.58 3034.26 1427.11 2975.02 1427.11 2975.02 1084.81 906.55 1084.81 906.55 1491.81 2320.44 1491.81 2320.44 1551.05"/>
  <polygon class="cls-1" points="2272.19 1084.69 847.32 1084.69 847.32 559.22 1530.35 559.22 1530.35 1057.26 1471.12 1057.26 1471.12 618.46 906.55 618.46 906.55 1025.46 2272.19 1025.46 2272.19 1084.69"/>
  <path class="cls-1" d="M2140.68,986.42h-533.15v-193.72h533.15v193.72ZM1666.24,927.71h415.73v-76.3h-415.73v76.3Z"/>
  <rect class="cls-1" x="2126.58" y="792.6" width="193.47" height="58.71"/>
  <polyline class="cls-1" points="1645.3 761.27 1645.3 557.61 1697.23 557.61 1697.23 761.27"/>
  <polyline class="cls-1" points="1849.76 761.27 1849.76 557.61 1901.85 557.61 1901.85 761.27"/>
  <polyline class="cls-1" points="2050.81 761.27 2050.81 557.61 2102.9 557.61 2102.9 761.27"/>
</svg>