<svg xmlns="http://www.w3.org/2000/svg" xmlns:xlink="http://www.w3.org/1999/xlink" xmlns:inkscape="http://www.inkscape.org/namespaces/inkscape" version="1.1" width="1000" height="500" viewBox="0 0 1000 500">
<path transform="matrix(1,0,0,-1,0,500)" d="M279.989 126.885H608.72207V187.21701H279.989ZM655.145 80.462H233.56504V233.63999H655.145Z" fill="#231f20"/>
<path transform="matrix(1,0,0,-1,0,500)" d="M796.987 187.299H643.999V233.722H796.987Z" fill="#231f20"/>
<path transform="matrix(1,0,0,-1,263.4336,241.50061)" d="M0 0V161.039H41.06V0" fill="#231f20"/>
<path transform="matrix(1,0,0,-1,425.1085,241.50061)" d="M0 0V161.039H41.191V0" fill="#231f20"/>
<path transform="matrix(1,0,0,-1,584.0865,241.50061)" d="M0 0V161.039H41.191V0" fill="#231f20"/>
</svg>
